<svg width="200" height="49" fill="none" xmlns="http://www.w3.org/2000/svg"><path d="M16.277 29.319v6.558c0 3.28-1.6 4.462-4.143 4.462-2.543 0-4.141-1.183-4.141-4.462V11.084c0-3.279 1.6-4.526 4.143-4.526 2.543 0 4.141 1.247 4.141 4.526v4.92h7.557v-4.46C23.834 4.196 19.764 0 11.917 0 4.07 0 0 4.197 0 11.543v23.875c0 7.346 4.069 11.545 11.917 11.545 7.847 0 11.917-4.199 11.917-11.545v-6.1h-7.557zM46.433.525l8.138 45.913h-8.065l-1.382-8.33h-9.808l-1.382 8.33h-7.338L34.734.525h11.699zM40.11 8.658l-3.778 23.22h7.701L40.257 8.655h-.144l-.002.002zm43.018 37.78H74.99c-.436-1.181-.727-1.903-.727-5.642v-7.214c0-4.263-1.599-5.838-5.232-5.838H66.27v18.694h-7.993V.525H70.34c8.283 0 11.843 3.476 11.843 10.56v3.607c0 4.722-1.672 7.74-5.232 9.248 3.998 1.64 5.305 5.05 5.305 9.839v7.083c0 2.23.074 3.87.873 5.576zM70.12 7.083H66.27v14.103h3.124c2.98 0 4.796-1.18 4.796-4.854v-4.526c0-3.279-1.234-4.723-4.069-4.723zM107.49.525l8.138 45.913h-8.066l-1.38-8.33h-9.81l-1.38 8.33h-7.34L95.79.525h11.699zm-6.322 8.133-3.778 23.22h7.702l-3.778-23.222h-.146v.002zM123.021.525h-8.065l7.847 45.913h11.917L142.567.525h-7.338l-6.032 37.45h-.146l-6.03-37.45zm38.712 0 8.138 45.913h-8.065l-1.38-8.33h-9.81l-1.382 8.33h-7.338L150.034.525h11.699zm-6.322 8.133-3.778 23.22h7.703l-3.779-23.222h-.146v.002zm36.378 37.78H200V.525h-7.121v27.481h-.146L184.667.525H174.64v45.913h7.194V13.182h.145l9.81 33.256z" fill="#9C9C9C"/></svg>