<svg width="200" height="49" fill="none" xmlns="http://www.w3.org/2000/svg"><path fill-rule="evenodd" clip-rule="evenodd" d="M30.295 21.17h3.575c3.695 0 5.691 4.136 3.284 6.816l-3.5 3.895c.38 2.31 1.657 4.399 3.578 5.849 1.923 1.45 4.347 2.157 6.79 1.977 2.444-.179 4.727-1.23 6.396-2.944 1.666-1.714 2.594-3.965 2.598-6.304 0-.407.084-.81.247-1.186.163-.375.402-.717.703-1.005.301-.287.66-.515 1.053-.67a3.372 3.372 0 0 1 1.242-.235c.86 0 1.685.327 2.293.907.61.58.952 1.368.953 2.19 0 3.248-1.072 6.414-3.063 9.049a16.063 16.063 0 0 1-5.705 4.69 16.866 16.866 0 0 1-7.307 1.732 16.885 16.885 0 0 1-7.34-1.599 16.102 16.102 0 0 1-5.797-4.587 16.102 16.102 0 0 1-5.797 4.587 16.885 16.885 0 0 1-7.34 1.6A16.866 16.866 0 0 1 9.852 44.2a16.062 16.062 0 0 1-5.705-4.691c-1.992-2.634-3.064-5.8-3.065-9.05 0-.407.083-.81.246-1.186.164-.376.403-.718.704-1.005.302-.288.66-.516 1.054-.67a3.37 3.37 0 0 1 1.242-.235c.86 0 1.685.327 2.294.907.608.58.95 1.368.952 2.19-.004 2.341.92 4.599 2.587 6.318a9.834 9.834 0 0 0 4.61 2.66c1.769.457 3.636.427 5.387-.084a9.796 9.796 0 0 0 4.516-2.806 9.122 9.122 0 0 0 2.263-4.668l-3.502-3.895c-2.406-2.678-.41-6.813 3.29-6.813l3.57-.002z" fill="#9C9C9C"/><path d="M45.44 12.916c.853 0 1.697-.16 2.484-.47a6.517 6.517 0 0 0 2.106-1.342 6.186 6.186 0 0 0 1.408-2.009 5.953 5.953 0 0 0 .495-2.37c0-.814-.169-1.62-.495-2.371a6.186 6.186 0 0 0-1.408-2.01 6.516 6.516 0 0 0-2.106-1.341 6.754 6.754 0 0 0-2.483-.47c-.852 0-1.696.159-2.483.47a6.516 6.516 0 0 0-2.106 1.342 6.183 6.183 0 0 0-1.407 2.009 5.953 5.953 0 0 0-.495 2.37c0 .814.168 1.62.495 2.37a6.184 6.184 0 0 0 1.407 2.01 6.515 6.515 0 0 0 2.106 1.342c.787.31 1.63.47 2.483.47zm-30.293 0c.852 0 1.696-.16 2.483-.47a6.516 6.516 0 0 0 2.106-1.342 6.185 6.185 0 0 0 1.407-2.01 5.955 5.955 0 0 0 .495-2.37c0-.813-.168-1.619-.495-2.37a6.185 6.185 0 0 0-1.407-2.01 6.517 6.517 0 0 0-2.106-1.341 6.754 6.754 0 0 0-2.483-.47c-.852 0-1.696.159-2.483.47a6.516 6.516 0 0 0-2.106 1.341 6.184 6.184 0 0 0-1.408 2.01 5.953 5.953 0 0 0-.495 2.37c0 .814.169 1.62.495 2.371a6.184 6.184 0 0 0 1.408 2.01 6.517 6.517 0 0 0 2.106 1.341c.787.31 1.631.47 2.483.47zm89.386-10.87c1 0 1.821.272 2.463.817.642.546.963 1.262.963 2.149v30.575c0 .92-.302 1.653-.91 2.198-.606.546-1.41.818-2.408.818-1 0-1.803-.272-2.411-.817-.606-.546-.91-1.279-.91-2.198v-1.28c-.786 1.398-1.928 2.489-3.428 3.273-1.463.783-3.14 1.175-5.033 1.175-2.25 0-4.266-.545-6.05-1.635-1.75-1.09-3.123-2.625-4.123-4.603-.965-2.01-1.447-4.31-1.447-6.901 0-2.59.482-4.857 1.447-6.801 1-1.942 2.373-3.443 4.123-4.5 1.749-1.056 3.766-1.585 6.05-1.585 1.892 0 3.57.376 5.034 1.126a8.005 8.005 0 0 1 3.373 3.17V4.909c0-.852.285-1.534.856-2.046.608-.545 1.411-.818 2.411-.818zm-9.907 31.751c2.142 0 3.784-.698 4.927-2.096 1.177-1.398 1.767-3.393 1.767-5.982 0-2.591-.59-4.569-1.767-5.93-1.142-1.399-2.766-2.099-4.873-2.099-2.142 0-3.802.682-4.98 2.047-1.178 1.363-1.767 3.323-1.767 5.88 0 2.59.59 4.6 1.767 6.033 1.178 1.433 2.82 2.147 4.926 2.147zm32.16 4.96c-2.677 0-5.033-.528-7.068-1.585a11.263 11.263 0 0 1-4.659-4.55c-1.106-1.978-1.66-4.279-1.66-6.903 0-2.625.552-4.91 1.66-6.852a11.265 11.265 0 0 1 4.658-4.55c2.036-1.057 4.392-1.586 7.069-1.586 2.677 0 5.015.528 7.014 1.586 2.004 1.026 3.63 2.614 4.659 4.55 1.107 1.943 1.661 4.227 1.661 6.852 0 2.626-.554 4.925-1.661 6.902-1.029 1.937-2.655 3.525-4.659 4.551-1.999 1.056-4.338 1.585-7.014 1.585zm-.053-4.96c2.178 0 3.837-.682 4.979-2.045 1.143-1.363 1.714-3.375 1.714-6.033 0-2.625-.571-4.619-1.714-5.982-1.142-1.398-2.784-2.097-4.926-2.097-2.141 0-3.803.699-4.979 2.097-1.143 1.363-1.715 3.357-1.715 5.982 0 2.658.571 4.67 1.715 6.033 1.142 1.363 2.784 2.045 4.926 2.045zm41.08-20.963c1 0 1.803.273 2.409.817.608.546.911 1.279.911 2.199v20.196c0 3.92-1.142 6.886-3.426 8.898-2.286 2.01-5.658 3.016-10.121 3.016-3.891 0-7.14-.698-9.745-2.096-1.321-.75-1.982-1.653-1.982-2.71 0-.75.179-1.346.536-1.79.392-.443.892-.665 1.498-.665.323 0 .715.069 1.179.206.464.17.946.358 1.445.562 1.118.454 2.263.846 3.428 1.176 1.035.272 2.213.41 3.534.41 4.676 0 7.014-2.182 7.014-6.547v-3.271c-.785 1.398-1.927 2.487-3.426 3.273-1.5.75-3.213 1.124-5.141 1.124-2.285 0-4.319-.511-6.105-1.533-1.749-1.058-3.122-2.523-4.122-4.397-1-1.876-1.5-4.04-1.5-6.495 0-2.453.483-4.618 1.446-6.493 1-1.91 2.392-3.374 4.176-4.397 1.786-1.057 3.82-1.586 6.105-1.586 1.928 0 3.641.392 5.141 1.176a7.857 7.857 0 0 1 3.426 3.222v-1.33c0-.885.304-1.602.911-2.148.607-.544 1.41-.817 2.409-.817zm-10.12 19.839c2.143 0 3.802-.666 4.979-1.994 1.215-1.33 1.821-3.154 1.821-5.472 0-2.352-.606-4.192-1.821-5.522-1.177-1.329-2.836-1.993-4.979-1.993-2.106 0-3.767.664-4.98 1.993-1.213 1.33-1.821 3.17-1.821 5.522 0 2.318.608 4.142 1.821 5.472s2.874 1.994 4.98 1.994zm29.85 6.084c-3.89 0-7.031-.733-9.423-2.2-1.142-.646-1.713-1.567-1.713-2.76 0-.682.196-1.227.588-1.635.393-.444.875-.666 1.446-.666.606 0 1.446.274 2.517.819 1.142.511 2.178.903 3.105 1.176.965.273 2.178.408 3.641.408 1.5 0 2.66-.239 3.482-.716.856-.477 1.284-1.14 1.284-1.994 0-.578-.178-1.039-.536-1.38-.321-.341-.927-.648-1.82-.92-.857-.307-2.177-.647-3.963-1.023-3.176-.613-5.462-1.483-6.854-2.607-1.356-1.125-2.034-2.676-2.034-4.653 0-1.5.463-2.847 1.392-4.04.928-1.226 2.195-2.164 3.802-2.812 1.642-.681 3.498-1.023 5.568-1.023 1.5 0 2.946.189 4.338.563 1.328.314 2.594.832 3.749 1.533 1.142.682 1.713 1.586 1.713 2.711 0 .681-.196 1.262-.589 1.738-.393.443-.875.666-1.447.666-.392 0-.785-.07-1.177-.205-.47-.228-.934-.467-1.392-.716-1.036-.512-1.928-.886-2.678-1.125-.75-.272-1.678-.41-2.784-.41-1.321 0-2.374.257-3.159.767-.75.512-1.125 1.211-1.125 2.097 0 .852.393 1.5 1.179 1.942.785.444 2.302.887 4.551 1.331 2.392.477 4.266 1.021 5.622 1.636 1.357.613 2.32 1.38 2.891 2.3.608.921.911 2.097.911 3.528 0 2.318-1.017 4.177-3.052 5.574-2 1.397-4.677 2.096-8.033 2.096z" fill="#9C9C9C"/></svg>