<svg width="200" height="49" fill="none" xmlns="http://www.w3.org/2000/svg"><g clip-path="url(#a)"><path d="M3.278 38.777c-.99 0-1.793-.325-2.407-.975C.29 37.152 0 36.304 0 35.257V3.574c0-1.047.273-1.859.82-2.437C1.4.56 2.185.271 3.176.271h17.978c2.083 0 3.124.939 3.124 2.816 0 1.841-1.041 2.762-3.124 2.762H6.504v10.398H20.13c2.083 0 3.125.94 3.125 2.817 0 1.84-1.042 2.762-3.125 2.762H6.505v13.43c0 1.048-.29 1.896-.87 2.546-.581.65-1.367.975-2.357.975zm30.396 0c-.922 0-1.69-.27-2.305-.812-.58-.578-.87-1.39-.87-2.437V3.195c0-1.047.29-1.841.87-2.383C31.984.271 32.752 0 33.675 0c.922 0 1.69.27 2.305.812.615.542.922 1.336.922 2.383v32.333c0 1.047-.307 1.859-.922 2.437-.614.541-1.383.812-2.305.812zm29.652-7.582c.58 0 1.041.235 1.383.704.375.47.563 1.101.563 1.895 0 1.12-.632 2.059-1.895 2.817-1.161.686-2.476 1.245-3.944 1.679-1.468.397-2.868.595-4.2.595-4.03 0-7.222-1.227-9.578-3.682-2.356-2.456-3.534-5.813-3.534-10.074 0-2.708.512-5.109 1.536-7.203 1.025-2.094 2.459-3.719 4.303-4.874 1.878-1.155 3.995-1.733 6.351-1.733 2.254 0 4.217.523 5.89 1.57 1.673 1.048 2.97 2.528 3.893 4.442.922 1.913 1.383 4.17 1.383 6.77 0 1.552-.649 2.328-1.947 2.328H48.42c.206 2.491.871 4.333 1.998 5.524 1.127 1.155 2.766 1.733 4.917 1.733 1.093 0 2.05-.144 2.869-.433.853-.289 1.81-.686 2.868-1.191 1.024-.578 1.776-.867 2.254-.867zm-8.863-15.11c-1.741 0-3.141.578-4.2 1.733-1.024 1.155-1.639 2.816-1.843 4.982h11.575c-.068-2.202-.58-3.863-1.536-4.982-.957-1.155-2.288-1.733-3.996-1.733zM91.93 33.47c.615.65.922 1.39.922 2.22 0 .794-.29 1.517-.87 2.166-.58.614-1.264.921-2.05.921-.853 0-1.587-.38-2.201-1.137l-7.222-8.449-7.222 8.449c-.65.722-1.383 1.083-2.203 1.083-.751 0-1.417-.307-1.997-.92-.58-.615-.871-1.319-.871-2.113 0-.83.307-1.57.922-2.22l7.478-8.611-7.068-8.124c-.615-.65-.922-1.39-.922-2.22 0-.831.29-1.535.87-2.113.58-.614 1.247-.92 1.998-.92.82 0 1.554.36 2.202 1.083l6.813 7.907 6.812-7.907c.648-.723 1.383-1.083 2.202-1.083.785 0 1.451.306 1.998.92.58.578.87 1.282.87 2.112 0 .83-.307 1.57-.922 2.22l-7.068 8.124 7.53 8.612zm28.337-14.731c2.083.613 3.688 1.733 4.815 3.357 1.161 1.625 1.741 3.61 1.741 5.958 0 3.25-1.11 5.795-3.329 7.636-2.185 1.841-5.207 2.762-9.066 2.762h-13.215c-.99 0-1.775-.289-2.356-.866-.546-.578-.82-1.39-.82-2.438V3.574c0-1.047.274-1.859.82-2.437.58-.577 1.366-.866 2.356-.866h12.702c3.756 0 6.692.884 8.809 2.654 2.152 1.733 3.227 4.17 3.227 7.31 0 2.023-.512 3.774-1.536 5.254-.991 1.48-2.374 2.564-4.149 3.25h.001zm-15.776-2.383h8.349c4.542 0 6.812-1.788 6.812-5.362 0-1.805-.563-3.141-1.69-4.008-1.127-.866-2.834-1.3-5.122-1.3h-8.349v10.67zm9.22 16.68c2.39 0 4.132-.451 5.224-1.354 1.093-.902 1.639-2.31 1.639-4.224 0-1.913-.563-3.34-1.69-4.278-1.093-.94-2.817-1.409-5.173-1.409h-9.22v11.265h9.22zm21.902 5.741c-.922 0-1.69-.27-2.304-.812-.581-.578-.871-1.39-.871-2.437V3.195c0-1.047.29-1.841.871-2.383.614-.541 1.382-.812 2.304-.812.922 0 1.691.27 2.305.812.615.542.922 1.336.922 2.383v32.333c0 1.047-.307 1.859-.922 2.437-.614.541-1.383.812-2.305.812zm21.252.108c-2.561 0-4.815-.56-6.761-1.678-1.913-1.12-3.398-2.727-4.456-4.82-1.059-2.095-1.588-4.532-1.588-7.312 0-2.78.529-5.2 1.588-7.257 1.058-2.094 2.543-3.7 4.456-4.82 1.946-1.12 4.2-1.679 6.761-1.679s4.797.56 6.709 1.679c1.917 1.087 3.472 2.77 4.456 4.82 1.059 2.058 1.588 4.477 1.588 7.257 0 2.78-.529 5.217-1.588 7.311-.984 2.051-2.539 3.733-4.456 4.82-1.912 1.12-4.148 1.68-6.709 1.68zm-.052-5.253c2.083 0 3.671-.722 4.764-2.166 1.092-1.445 1.639-3.575 1.639-6.39 0-2.781-.547-4.893-1.639-6.337-1.093-1.48-2.664-2.22-4.712-2.22-2.049 0-3.637.74-4.764 2.22-1.092 1.444-1.639 3.556-1.639 6.336 0 2.816.547 4.947 1.639 6.39 1.093 1.445 2.664 2.167 4.712 2.167zm39.296-22.205c.956 0 1.724.29 2.304.867.581.577.871 1.354.871 2.329v21.392c0 4.152-1.093 7.293-3.278 9.423s-5.412 3.196-9.68 3.196c-3.722 0-6.83-.74-9.322-2.22-1.264-.795-1.895-1.752-1.895-2.871 0-.794.17-1.426.512-1.896.375-.469.853-.704 1.434-.704.307 0 .683.073 1.127.217.444.18.905.38 1.383.596 1.229.541 2.322.956 3.278 1.245.99.29 2.117.434 3.38.434 4.473 0 6.71-2.311 6.71-6.933v-3.466a8.224 8.224 0 0 1-3.278 3.466c-1.434.795-3.073 1.192-4.917 1.192-2.186 0-4.132-.542-5.839-1.625-1.673-1.12-2.988-2.672-3.944-4.657-.956-1.986-1.434-4.279-1.434-6.878 0-2.6.461-4.893 1.383-6.878.956-2.022 2.287-3.575 3.995-4.658 1.707-1.12 3.653-1.679 5.839-1.679 1.844 0 3.483.415 4.917 1.246a7.895 7.895 0 0 1 3.278 3.412v-1.409c0-.938.29-1.697.871-2.274.58-.578 1.348-.867 2.305-.867zm-9.681 21.014c2.049 0 3.637-.705 4.763-2.113 1.161-1.408 1.742-3.34 1.742-5.794 0-2.492-.581-4.441-1.742-5.85-1.126-1.408-2.714-2.112-4.763-2.112-2.015 0-3.602.704-4.763 2.113-1.161 1.408-1.742 3.357-1.742 5.849 0 2.455.581 4.386 1.742 5.794 1.161 1.409 2.748 2.113 4.763 2.113z" fill="#9C9C9C"/></g><defs><clipPath id="a"><path fill="#fff" d="M0 0h200v49H0z"/></clipPath></defs></svg>