<svg width="200" height="49" fill="none" xmlns="http://www.w3.org/2000/svg"><g clip-path="url(#a)"><path d="M35.845 10.568 29.223 38.3h-9.514l2.418-10.013H11.879L9.511 38.3H0l6.675-27.732h9.46l-2.837 11.71h10.247l2.84-11.71h9.46zM55.357 38.3l.316-6.046h-8.777L44.321 38.3H34.282L47.79 10.568h17.342l.212 27.732h-9.987zM53.203 17.31l-4.151 9.783h6.885l.577-9.782-3.311-.001zm52.96-6.74L99.54 38.3h-9.514l-6.62-15.174-3.574 15.175h-9.515l6.674-27.733h9.776l6.518 14.175 3.414-14.175h9.464zm22.194 0c4.59 0 7.866.847 9.827 2.541 1.438 1.284 2.154 2.89 2.154 4.815 0 .694-.086 1.425-.26 2.195l-2.051 8.59c-.7 2.9-2.418 5.225-5.151 6.972-2.734 1.746-6.272 2.618-10.618 2.618h-15.294l6.676-27.732h14.717zm-3.312 6.009h-3.416l-3.731 15.713h4.993c1.646 0 2.925-.321 3.836-.962.946-.669 1.594-1.747 1.942-3.235l1.527-6.317a6.49 6.49 0 0 0 .21-1.542c0-2.44-1.786-3.657-5.361-3.657zM168.506 38.3h-26.384l6.678-27.732h26.384l-1.472 6.01h-16.924l-1.208 5.2h13.98l-1.471 6.007h-13.981l-1.05 4.507h16.923l-1.475 6.008zm30.022 0h-23.967l6.676-27.732h9.461l-5.203 21.724H200l-1.472 6.008zm-92.814 4.936h91.428L194.286 49h-91.428l2.856-5.764zM10 0h100l-2.858 5.764h-100L10 0z" fill="#9C9C9C"/></g><defs><clipPath id="a"><path fill="#fff" d="M0 0h200v49H0z"/></clipPath></defs></svg>