<svg width="200" height="49" fill="none" xmlns="http://www.w3.org/2000/svg"><g clip-path="url(#a)"><mask id="b" style="mask-type:luminance" maskUnits="userSpaceOnUse" x="0" y="0" width="200" height="49"><path d="M0 0h200v49H0V0z" fill="#fff"/></mask><g mask="url(#b)"><path fill-rule="evenodd" clip-rule="evenodd" d="M13.4 43.172a.708.708 0 0 1-.369-.11.91.91 0 0 1-.29-.301 3.302 3.302 0 0 1-.433-1.23 20.43 20.43 0 0 1-.24-1.721c-.067-.745-.1-1.494-.102-2.244-.02-1.646-.016-3.294.013-4.94.017-1.011.025-1.8.025-2.369V11.432c0-.928.005-1.633.014-2.117.008-.484.038-1.031.087-1.642.029-.454.092-.904.191-1.342.097-.338.224-.661.38-.963.144-.317.354-.579.609-.758.296-.184.6-.347.912-.49a5.144 5.144 0 0 1 1.242-.395c.552-.1 1.106-.184 1.661-.253V1.733l-.433-.538H1.357l-.405.538v1.484c2.57.19 4.006 1.096 4.31 2.717.177 1.368.261 2.752.254 4.138v28.834a35.936 35.936 0 0 1-.153 4.486c-.07.231-.173.444-.304.63-.196.292-.403.57-.62.837a9.647 9.647 0 0 0-.495.648v1.105c13.065 0 21.151.105 24.26.317l1.091-4.58-.684-.6A123.009 123.009 0 0 1 13.4 43.17l-.002.002zM37.683 29.97a.576.576 0 0 1-.152.031c-.253 0-.38-.114-.38-.346.001-1.047.065-2.093.19-3.128a19.35 19.35 0 0 1 .71-3.3c.318-1.08.754-2.1 1.295-3.032.574-.948 1.32-1.715 2.176-2.239.857-.524 1.8-.79 2.755-.777a3.334 3.334 0 0 1 1.994.51c.617.383 1.144.958 1.53 1.67.798 1.472 1.215 3.214 1.191 4.99a1.875 1.875 0 0 1-.238.907 1.361 1.361 0 0 1-.611.577 36.195 36.195 0 0 1-4.247 1.8 246.99 246.99 0 0 0-6.057 2.307.585.585 0 0 0-.156.03zm15.058 9.854c-3.044 2.295-5.672 3.442-7.883 3.442-1.498.04-2.97-.5-4.209-1.548-1.153-.961-2.07-2.3-2.649-3.868-.57-1.573-.86-3.28-.849-5.005 11.053-4.274 16.63-6.412 16.73-6.412.44-.112.832-.415 1.106-.856a2.73 2.73 0 0 0 .39-1.544c.03-1.55-.262-3.084-.849-4.453-.536-1.224-1.329-2.245-2.294-2.953a9.97 9.97 0 0 0-3.13-1.548 13.008 13.008 0 0 0-3.64-.49c-2.197-.042-4.374.502-6.387 1.596-1.774.952-3.342 2.414-4.575 4.264-1.162 1.789-2.06 3.82-2.649 6a26.246 26.246 0 0 0-.913 6.964c0 4.865 1.057 8.507 3.169 10.929 1.91 2.21 4.606 3.315 8.086 3.315 1.996-.025 3.96-.62 5.743-1.737a43.728 43.728 0 0 0 6.147-4.613l-.555-1.228-.79-.255zM86.885 6.522c-.68-2.205-2.013-4.003-3.727-5.022C81.035.39 78.742-.127 76.44-.015a16.098 16.098 0 0 0-4.981.757 13.789 13.789 0 0 0-4.285 2.275c-1.298 1.017-2.36 2.438-3.08 4.123-.781 1.843-1.174 3.901-1.14 5.984-.002 1.49.29 2.96.848 4.278a12.036 12.036 0 0 0 2.13 3.46c.94 1.031 1.94 1.976 2.99 2.827a34.173 34.173 0 0 0 3.272 2.4 54.656 54.656 0 0 1 3.118 2.148c.846.596 1.64 1.3 2.37 2.1 1.875 2.17 2.813 4.232 2.813 6.19a9.22 9.22 0 0 1-.514 3.023 7.821 7.821 0 0 1-1.438 2.52c-.608.778-1.337 1.394-2.144 1.81a5.338 5.338 0 0 1-2.545.606 5.592 5.592 0 0 1-2.964-.743c-.929-.526-1.75-1.309-2.398-2.289-1.345-1.915-2.08-4.376-2.065-6.918l-.987-.443-5.045 7.043c1.153 2.074 2.716 3.744 4.539 4.849 1.853 1.13 3.892 1.709 5.957 1.691a15.502 15.502 0 0 0 5.552-1.076 18.908 18.908 0 0 0 5.12-2.922c1.513-1.2 2.797-2.794 3.764-4.673.948-1.786 1.455-3.877 1.458-6.017a11.377 11.377 0 0 0-.481-3.363 11.716 11.716 0 0 0-1.242-2.78 12.566 12.566 0 0 0-2.118-2.479 27.464 27.464 0 0 0-2.7-2.229 88.805 88.805 0 0 0-3.396-2.29 41.56 41.56 0 0 1-2.357-1.532 28.356 28.356 0 0 1-2.133-1.713 11.83 11.83 0 0 1-1.925-2.104 10.379 10.379 0 0 1-1.217-2.464 9.093 9.093 0 0 1-.507-3.048 7.817 7.817 0 0 1 .362-2.508 6.735 6.735 0 0 1 1.119-2.135 5.275 5.275 0 0 1 1.798-1.458 4.317 4.317 0 0 1 2.118-.436 5.042 5.042 0 0 1 2.614.582c.826.431 1.566 1.084 2.165 1.912 1.2 1.69 1.957 3.795 2.167 6.033l.888.347 4.944-4.801zm24.652 12.113c-.453-.986-1.109-1.804-1.901-2.37a8.198 8.198 0 0 0-2.51-1.215 10.457 10.457 0 0 0-2.877-.378 12.418 12.418 0 0 0-5.412 1.153c-1.486.67-2.849 1.707-4.005 3.047a16.841 16.841 0 0 0-2.637 4.468 24.804 24.804 0 0 0-1.508 5.29 34.08 34.08 0 0 0-.456 5.653 20.4 20.4 0 0 0 .544 4.767 15.873 15.873 0 0 0 1.635 4.185c.765 1.314 1.792 2.359 2.98 3.032 1.363.774 2.849 1.158 4.347 1.121 4.749 0 9.21-2.6 13.384-7.8l-.506-.917-.634-.189c-3.092 2.969-5.949 4.453-8.568 4.453a5.108 5.108 0 0 1-2.826-.806c-.794-.49-1.485-1.203-2.019-2.083-.529-.904-.96-1.892-1.28-2.937a18.826 18.826 0 0 1-.722-3.237 24.916 24.916 0 0 1-.203-3.158c.005-1.345.099-2.686.279-4.011.199-1.476.496-2.928.887-4.343.356-1.383.973-2.64 1.8-3.665a3.965 3.965 0 0 1 1.277-1.068 3.237 3.237 0 0 1 1.512-.368 3.148 3.148 0 0 1 1.991.56c.609.412 1.113 1.028 1.456 1.778.783 1.755 1.169 3.742 1.115 5.748l.888.442 4.791-3.536a9.515 9.515 0 0 0-.822-3.616zm9.291 9.396c.129-1.24.354-2.462.672-3.648a15.38 15.38 0 0 1 1.229-3.268c.504-.943 1.177-1.727 1.965-2.29.851-.61 1.819-.922 2.801-.9 1.066-.034 2.116.31 3.029.994.848.657 1.53 1.598 1.965 2.716a17.01 17.01 0 0 1 .987 3.648c.209 1.362.312 2.749.305 4.138 0 1.263-.009 2.316-.026 3.157a47.926 47.926 0 0 1-.177 3.033 22.283 22.283 0 0 1-.418 2.937 17.413 17.413 0 0 1-.773 2.464 6.271 6.271 0 0 1-1.23 2.052 5.916 5.916 0 0 1-1.8 1.263 5.756 5.756 0 0 1-2.471.506c-.927.014-1.835-.328-2.599-.98-.746-.621-1.366-1.448-1.812-2.416a17.148 17.148 0 0 1-1.09-3.3 26.606 26.606 0 0 1-.584-3.46 32.602 32.602 0 0 1-.152-3.047c0-1.203.059-2.405.179-3.6zm-3.143 16.329c1.841 2.084 4.765 3.126 8.771 3.126 1.481.012 2.958-.2 4.398-.632a11.817 11.817 0 0 0 3.825-2.037c1.185-.929 2.221-2.123 3.055-3.522a18.416 18.416 0 0 0 2.003-5.243 30.71 30.71 0 0 0 .735-7.01 16.015 16.015 0 0 0-.835-5.56c-.6-1.757-1.5-3.33-2.638-4.61-2.113-2.358-5.181-3.537-9.202-3.537-4.022 0-7.334 1.547-9.937 4.643-1.278 1.501-2.286 3.32-2.959 5.34a18.872 18.872 0 0 0-.945 6.377c0 5.643 1.241 9.864 3.726 12.665h.003zm39.671-25.014c1.352 0 2.315.337 2.89 1.01.536.813.874 1.8.975 2.845.213 1.231.345 2.484.394 3.742.033 1.106.051 2.532.051 4.28a701.886 701.886 0 0 1-.038 6.806c-.009.684-.005 1.49.012 2.416.004.691.038 1.382.102 2.068.051.454.118.949.202 1.485.059.449.179.88.355 1.278.152.317.339.605.556.855.761.858 1.761 1.31 2.788 1.262 1.268 0 2.721-.8 4.36-2.4a53.966 53.966 0 0 0 3.904-4.518l-.583-1.075h-.608c-.992.988-2.204 1.573-3.473 1.674-.268.02-.537-.03-.79-.144a1.976 1.976 0 0 1-.681-.52 2.347 2.347 0 0 1-.444-.613 5.445 5.445 0 0 1-.265-1.296 22.638 22.638 0 0 1-.127-2.732c0-.694.03-1.816.088-3.363.047-1.1.077-2.2.09-3.301V27.21c.016-2.043.012-3.458-.013-4.25a37.183 37.183 0 0 0-.292-3.22 6.841 6.841 0 0 0-.786-2.81 5.526 5.526 0 0 0-1.572-1.453 4.623 4.623 0 0 0-2.585-.68c-2.974 0-6.423 1.517-10.343 4.549l-.608-.285c-.033-1.161-.337-2.285-.874-3.236-.499-.813-1.357-1.217-2.573-1.217a5.717 5.717 0 0 0-2.143.458 9.629 9.629 0 0 0-2.282 1.358c-.77.6-1.437 1.159-2.003 1.674a62.712 62.712 0 0 0-1.965 1.879l.938 1.547c.172-.138.346-.275.52-.41.295-.231.553-.42.773-.568.219-.147.482-.32.786-.521.272-.184.556-.339.85-.462.224-.095.458-.15.696-.158.293-.008.582.084.836.27.258.21.452.522.556.884.127.382.237.77.329 1.167.104.535.163 1.08.178 1.628.034.717.055 1.296.061 1.737.008.44.012 1.104.013 1.99v.537c0 2.063-.127 8.38-.38 18.949l.634.442 5.703-2.053c-.169-.905-.296-3.758-.38-8.557-.084-4.695-.125-9.391-.123-14.087 2.94-1.98 5.035-2.969 6.286-2.969l.005.003zm24.589 10.768a.548.548 0 0 1-.152.033c-.252 0-.379-.116-.38-.346.001-1.048.064-2.093.191-3.128.142-1.128.38-2.235.709-3.301.318-1.08.753-2.1 1.293-3.032.574-.948 1.319-1.716 2.176-2.24a5.12 5.12 0 0 1 2.755-.777 3.33 3.33 0 0 1 1.993.511c.618.382 1.145.957 1.53 1.67.799 1.471 1.215 3.213 1.191 4.99a1.889 1.889 0 0 1-.238.906 1.368 1.368 0 0 1-.611.577 36.344 36.344 0 0 1-4.245 1.802c-2.026.74-4.046 1.51-6.059 2.306a.625.625 0 0 0-.152.03l-.001-.001zm15.058 9.855c-3.043 2.295-5.671 3.443-7.884 3.442-1.498.04-2.969-.5-4.208-1.547-1.153-.962-2.069-2.3-2.648-3.868a14.46 14.46 0 0 1-.85-5.008c11.053-4.273 16.63-6.41 16.731-6.41.439-.112.832-.415 1.106-.856a2.74 2.74 0 0 0 .39-1.544c.03-1.55-.263-3.085-.849-4.454-.536-1.224-1.329-2.244-2.295-2.953a9.985 9.985 0 0 0-3.13-1.547 13.012 13.012 0 0 0-3.641-.49c-2.195-.042-4.373.502-6.384 1.595-1.775.953-3.343 2.414-4.575 4.264-1.163 1.79-2.06 3.821-2.649 6.001a26.217 26.217 0 0 0-.913 6.964c0 4.864 1.056 8.506 3.168 10.928 1.91 2.211 4.605 3.316 8.087 3.316 1.996-.026 3.96-.62 5.742-1.737a43.8 43.8 0 0 0 6.147-4.612l-.555-1.23-.79-.254z" fill="#9C9C9C"/></g></g><defs><clipPath id="a"><path fill="#fff" d="M0 0h200v49H0z"/></clipPath></defs></svg>