<svg width="200" height="49" fill="none" xmlns="http://www.w3.org/2000/svg"><g clip-path="url(#a)"><path d="M65.708 48.347V0h-12.13L28.216 37.305l-4.28-5.422c7.653-1.176 11.934-7.971 11.934-15.223 0-6.925-3.762-12.74-8.821-14.961C24.519.588 20.757 0 15.762 0H0v48.347h11.74V32.732h.13l11.092 15.615h12.39l4.216-6.991h13.88v6.99h12.26zM11.74 24.304V10.845h4.67c4.606 0 7.72 2.352 7.72 6.534 0 4.442-2.92 6.925-7.784 6.925H11.74zm41.709 7.252h-8.044l7.914-13.393h.13v13.393zm61.456 16.79V0h-11.74l.519 30.576L85.003 0H74.43v48.347h11.74l-.324-29.531 18.422 29.53h10.637zm35.403 0V37.502h-14.919v-8.297h14.465V18.359h-14.465v-7.514h14.919V0h-26.659v48.347h26.659zm48.733 0-16.93-24.238L198.003 0h-12.844l-13.556 21.756h-.13V0h-12.259v48.347h12.259V27.44h.13l13.102 20.907h14.336z" fill="#9C9C9C"/></g><defs><clipPath id="a"><path fill="#fff" d="M0 0h200v49H0z"/></clipPath></defs></svg>