<svg width="200" height="49" fill="none" xmlns="http://www.w3.org/2000/svg"><path d="M22.086 47.494c-1.198.045-2.384-.336-3.45-1.108-1.06-.767-1.963-1.903-2.626-3.3-2.087 2.707-4.79 4.27-7.622 4.408-5.089 0-7.847-4.992-6.916-12.149.709-5.381 3.877-10.774 4.763-15.104-1.715-1.452-4.26-2.464-5.452.505L0 20.084c.624-3.254 2.134-5.418 4.314-5.418s3.793 1.801 5.872.142h1.658c-.885 6.483-3.122 11.668-4.314 20.745-.727 5.562.624 8.09 2.908 8.09 1.687-.293 3.239-1.451 4.36-3.255-.91-3.166-1.37-6.554-1.351-9.97 0-7.884 2.6-16.194 6.961-16.194 2.237 0 3.895 2.165 3.895 7.3 0 5.133-2.236 13.082-5.088 18.072.154 1.19.602 2.266 1.266 3.046.663.778 1.5 1.21 2.369 1.222 4.156 0 7.063-8.676 7.063-16.7 0-8.025-2.497-7.663-2.282-10.373.019-.338.085-.668.195-.97.11-.303.26-.571.444-.79.372-.448.855-.671 1.345-.625 1.296 0 3 2.281 3 11.54 0 11.797-4.509 21.548-10.53 21.548zm-.941-29.198c-1.296 0-2.545 6.65-2.703 13.522-.06 1.47-.042 2.944.056 4.409 1.954-4.495 3.147-9.567 3.485-14.82-.01-2.334-.317-3.113-.84-3.113l.002.002zm20.007 28.9a2.76 2.76 0 0 1-1.61-.261c-.514-.249-.984-.653-1.377-1.185a5.684 5.684 0 0 1-.885-1.886 7.069 7.069 0 0 1-.229-2.231c0-3.177 2.964-19.008 2.964-21.614 0-1.23-.205-1.957-.987-1.957-.874.198-1.687.752-2.34 1.594v-2.242c1.356-1.738 3.108-2.736 4.938-2.813a2.802 2.802 0 0 1 1.616.288c.516.26.986.67 1.376 1.208a5.77 5.77 0 0 1 .884 1.902c.19.715.268 1.48.224 2.241 0 3.176-2.962 18.943-2.962 21.536 0 1.232.204 1.958.988 1.958.861-.202 1.669-.726 2.339-1.517v2.164c-1.352 1.75-3.106 2.75-4.939 2.815zM44.786 1.44a2.13 2.13 0 0 1 1.184.308c.374.222.71.554.981.973.273.416.476.913.597 1.453.12.541.154 1.113.099 1.674-.1 1.2-.507 2.305-1.144 3.11-.642.813-1.47 1.274-2.332 1.299a2.126 2.126 0 0 1-1.183-.308 3.031 3.031 0 0 1-.982-.973 4.408 4.408 0 0 1-.596-1.454 5.356 5.356 0 0 1-.1-1.674c.1-1.198.507-2.304 1.144-3.11.643-.812 1.47-1.273 2.332-1.298zm11.536 38.962c-.26 1.957-.102 3.32.886 3.32.865-.189 1.675-.715 2.339-1.519l.093 2.178c-1.357 1.739-3.108 2.737-4.939 2.815-3.224 0-4.472-3.254-3.997-7.3l3.168-25.088c1.053-8.376.69-9.478-2.535-9.478l.205-2.022 9.72-1.79-4.94 38.884zm27.333-.066c-.261 1.958-.16 3.398.885 3.398.866-.229 1.674-.78 2.34-1.595v2.242c-1.348 1.758-3.105 2.76-4.94 2.815-.927.095-1.847-.298-2.582-1.104-.729-.798-1.218-1.955-1.37-3.24-.781 1.44-1.785 2.608-2.935 3.417-1.155.815-2.426 1.251-3.717 1.277-6.179 0-8.779-7.585-7.586-16.7 1.193-9.114 6.755-16.557 13.046-16.557 1.487-.044 2.958.442 4.277 1.413l.159-1.153c1.23-8.921.662-9.22-2.563-9.22l.159-2.021 9.765-1.79-4.939 38.82.001-.002zm-6.7-22.78c-3.589 0-5.973 5.925-6.915 13.225-.988 7.663-.364 12.966 3.01 12.966 2.283 0 4.883-3.891 5.665-9.829l1.92-15.038c-1.11-.936-2.389-1.396-3.68-1.323zm23.119 30.001c-7.222 0-9.198-7.234-8.312-14.17l2.357-18.579c1.091-8.387.728-9.543-2.496-9.543l.203-2.022 9.748-1.725-1.975 15.753c1.524-1.839 3.448-2.887 5.452-2.969 6.29 0 9.244 7.443 8.107 16.557-1.137 9.115-6.923 16.698-13.084 16.698zm3.374-29.819c-1.048.029-2.063.52-2.903 1.404-.834.877-1.45 2.106-1.756 3.51L97.335 34.32c-.886 6.937.885 9.763 3.122 9.763 3.271 0 5.302-5.056 6.392-13.367.969-7.442.085-12.939-3.41-12.939l.009-.039zm19.56 17.322c0 5.563 1.92 8.531 5.591 8.531 1.864 0 4.575-1.801 6.291-4.188l.726 2.308c-1.235 1.82-2.716 3.274-4.354 4.277-1.645 1.007-3.414 1.545-5.207 1.583-5.451 0-9.142-5.64-9.142-13.303 0-11.345 6.756-19.953 13.252-19.953 3.951 0 6.178 3.034 6.178 6.574-.046 5.496-3.792 11.669-13.335 14.17zm6.7-17.426c-2.963 0-5.814 6.003-6.598 14.6 5.974-2.024 8.518-7.663 8.574-11.28-.01-2.023-.69-3.32-1.985-3.32h.009zm27.836 29.562c-.928.095-1.848-.299-2.583-1.104-.729-.798-1.217-1.955-1.368-3.24-.754 1.438-1.734 2.61-2.863 3.42-1.135.816-2.388 1.251-3.661 1.273-6.075 0-8.675-7.584-7.455-16.7 1.221-9.113 6.691-16.544 13-16.544 1.337-.01 2.662.361 3.895 1.09h5.927l-3.178 24.945c-.261 1.958-.158 3.398.886 3.398.866-.229 1.673-.78 2.339-1.595v2.242c-1.348 1.758-3.105 2.76-4.939 2.815zm-4.781-29.64c-3.485 0-5.926 5.925-6.859 13.225-.988 7.663-.307 12.966 2.796 12.966 2.386 0 4.939-4.045 5.666-9.829l1.92-15.038c-1.049-.936-2.274-1.398-3.514-1.323h-.009zm27.854 5.277c-1.407 0-1.771-1.516-2.18-3.112-.14-.806-.476-1.518-.948-2.012-.477-.497-1.06-.748-1.652-.71-.769-.058-1.526.288-2.126.971-.595.676-.987 1.644-1.099 2.711-.158 1.959.885 3.617 2.86 6.002l2.647 3.034c.984 1.035 1.748 2.43 2.209 4.035.458 1.6.593 3.344.391 5.042-.671 5.419-3.895 8.75-8.21 8.75-5.2 0-8.517-4.265-8.154-7.156.085-.76.36-1.456.779-1.957.418-.505.952-.784 1.505-.792 1.351 0 1.863 1.44 2.282 3.32.27 1.08.787 2.005 1.473 2.634.688.629 1.503.924 2.32.84.808.054 1.601-.314 2.229-1.035.622-.714 1.03-1.733 1.145-2.853.205-2.594-.932-4.188-3.066-6.873l-2.6-3.177c-.914-.97-1.628-2.267-2.069-3.757a12.393 12.393 0 0 1-.429-4.695c.467-3.475 2.796-7.78 8.155-7.78 4.156 0 6.756 3.255 6.523 5.86-.026.719-.245 1.397-.612 1.895-.368.502-.858.793-1.373.815zm19.02-4.537h-5.042l-2.441 19.214c-.522 3.98-.103 5.783 1.453 5.783.83 0 2.134-.648 3.998-3.319l.102 2.813c-.846 1.395-1.896 2.516-3.076 3.286-1.186.775-2.475 1.184-3.782 1.2-3.532 0-5.302-3.474-4.463-9.906l2.441-19.071h-3.942l.308-2.969h3.978l1.044-8.597h5.816l-1.091 8.596h5.042l-.345 2.97z" fill="#9C9C9C"/></svg>