<svg width="32" height="32" fill="none" xmlns="http://www.w3.org/2000/svg"><g clip-path="url(#a)"><path d="M25.333 10.06H24.24l-2.267-6.807a2.903 2.903 0 0 0-.976-1.39 2.527 2.527 0 0 0-1.53-.53h-2.134C16.6 1.333 16 1.988 16 2.788s.6 1.454 1.333 1.454h2.134l1.946 5.818H15l-.48-1.454h.12c.733 0 1.333-.655 1.333-1.455s-.6-1.454-1.333-1.454h-3.973c-.734 0-1.334.654-1.334 1.454 0 .8.6 1.455 1.334 1.455h1l2.426 7.273H13.2c-.587-3.244-3.08-5.644-6.2-5.804-3.733-.204-7 3.185-7 7.258s2.933 7.273 6.667 7.273c3.28 0 5.933-2.458 6.533-5.818h5.6c.587 3.243 3.08 5.643 6.2 5.803 3.733.19 7-3.185 7-7.273 0-4.058-2.933-7.258-6.667-7.258zM8 18.788h2.427c-.56 1.789-2.134 3.025-4.027 2.894-1.987-.13-3.64-1.963-3.733-4.145-.094-2.546 1.693-4.568 4-4.568 1.773 0 3.226 1.208 3.76 2.91H8c-.733 0-1.333.654-1.333 1.454 0 .8.6 1.455 1.333 1.455zm10.8-2.91h-1.867l-.973-2.909H20a7.198 7.198 0 0 0-1.2 2.91zm6.373 5.819c-2.053-.088-3.786-1.993-3.84-4.248-.026-1.396.52-2.618 1.4-3.432l.827 2.472c.253.757 1.013 1.15 1.707.873.693-.276 1.053-1.105.8-1.862l-.84-2.516.013-.015a3.665 3.665 0 0 1 1.566.29c.499.21.953.53 1.336.938.382.408.685.896.89 1.435.205.539.307 1.118.301 1.701 0 2.502-1.84 4.45-4.16 4.364zm-10.506 7.272H9.333l8 4.364v-2.91h5.334l-8-4.363v2.91z" fill="#FB0"/></g><defs><clipPath id="a"><path fill="#fff" d="M0 0h32v32H0z"/></clipPath></defs></svg>