<svg width="20" height="20" fill="none" xmlns="http://www.w3.org/2000/svg"><g clip-path="url(#a)"><path fill="#000" d="M0 0h20v20H0z"/><path d="M16.667 7.333H3.333c-.916 0-1.658.75-1.658 1.667l-.008 10c0 .917.75 1.667 1.666 1.667h13.334c.916 0 1.666-.75 1.666-1.667V9c0-.917-.75-1.667-1.666-1.667zm-.334 3.542-5.891 3.684a.843.843 0 0 1-.884 0l-5.891-3.684a.708.708 0 1 1 .75-1.2L10 13.167l5.583-3.492a.708.708 0 1 1 .75 1.2z" fill="#FB0"/></g><defs><clipPath id="a"><path fill="#fff" d="M0 0h20v20H0z"/></clipPath></defs></svg>