<svg width="17" height="16" fill="none" xmlns="http://www.w3.org/2000/svg"><path d="M1.833 4c.366 0 .666-.3.666-.666v-.667A.67.67 0 0 1 3.166 2h.667c.366 0 .666-.3.666-.666 0-.367-.3-.667-.666-.667h-.667c-1.107 0-2 .893-2 2v.667c0 .366.3.666.667.666zm2 10h-.667a.669.669 0 0 1-.667-.666v-.667a.668.668 0 0 0-1.333 0v.667c0 1.107.893 2 2 2h.667a.668.668 0 0 0 0-1.333V14zm10-13.333h-.666c-.367 0-.667.3-.667.667 0 .366.3.666.667.666h.666c.367 0 .667.3.667.667v.667c0 .366.3.666.667.666.366 0 .666-.3.666-.666v-.667c0-1.107-.893-2-2-2zM15.167 12c-.367 0-.667.3-.667.667v.667c0 .367-.3.667-.667.667h-.666c-.367 0-.667.3-.667.666 0 .367.3.667.667.667h.666c1.107 0 2-.893 2-2v-.667c0-.367-.3-.666-.666-.666V12zm-2.002-2.086V6.087c0-.48-.253-.92-.666-1.153l-3.334-1.92a1.317 1.317 0 0 0-1.333 0L4.499 4.926c-.414.24-.667.68-.667 1.16v3.827c0 .48.253.92.667 1.153l3.333 1.92a1.317 1.317 0 0 0 1.333 0l3.335-1.919a1.32 1.32 0 0 0 .666-1.153h-.001zm-5.333 1.533L5.165 9.914V6.827L7.832 8.38v3.067zm.667-4.22-2.64-1.54 2.64-1.52 2.64 1.52-2.64 1.54zm3.333 2.687-2.667 1.533V8.38l2.667-1.553v3.087z" fill="#9C9C9C"/></svg>