<svg width="20" height="20" fill="none" xmlns="http://www.w3.org/2000/svg"><g clip-path="url(#a)"><path fill="#000" d="M0 0h20v20H0z"/><path d="M10 4.667c-3.5 0-6.667 2.683-6.667 6.833 0 2.65 2.042 5.767 6.117 9.358a.848.848 0 0 0 1.108 0c4.067-3.591 6.109-6.708 6.109-9.358 0-4.15-3.167-6.833-6.667-6.833zM10 13c-.917 0-1.667-.75-1.667-1.667S9.083 9.666 10 9.666s1.667.75 1.667 1.667S10.917 13 10 13z" fill="#FB0"/></g><defs><clipPath id="a"><path fill="#fff" d="M0 0h20v20H0z"/></clipPath></defs></svg>