<svg width="32" height="32" fill="none" xmlns="http://www.w3.org/2000/svg"><g clip-path="url(#a)"><path d="M16 11.515c-2.947 0-5.334 2.604-5.334 5.819 0 3.214 2.387 5.818 5.334 5.818 2.946 0 5.333-2.604 5.333-5.819 0-3.214-2.387-5.818-5.333-5.818zm11.92 4.364c-.302-2.95-1.515-5.7-3.439-7.798-1.923-2.099-4.444-3.422-7.148-3.751V2.788c0-.8-.6-1.454-1.333-1.454-.734 0-1.334.654-1.334 1.454V4.33c-2.704.33-5.224 1.652-7.148 3.75-1.924 2.1-3.136 4.85-3.438 7.799H2.666c-.733 0-1.333.655-1.333 1.455s.6 1.454 1.333 1.454H4.08c.302 2.95 1.514 5.7 3.438 7.798 1.924 2.099 4.445 3.422 7.148 3.751v1.542c0 .8.6 1.454 1.334 1.454.733 0 1.333-.654 1.333-1.454v-1.542c2.704-.33 5.225-1.652 7.148-3.75 1.924-2.1 3.137-4.85 3.439-7.799h1.413c.733 0 1.333-.654 1.333-1.454 0-.8-.6-1.455-1.333-1.455H27.92zM16 27.515c-5.16 0-9.334-4.552-9.334-10.181 0-5.63 4.174-10.182 9.334-10.182 5.16 0 9.333 4.552 9.333 10.181 0 5.63-4.173 10.182-9.333 10.182z" fill="#FB0"/></g><defs><clipPath id="a"><path fill="#fff" d="M0 0h32v32H0z"/></clipPath></defs></svg>