<svg width="32" height="32" fill="none" xmlns="http://www.w3.org/2000/svg"><path d="M24 10.667h-1.333V8a6.669 6.669 0 0 0-6.666-6.667A6.67 6.67 0 0 0 9.334 8v2.667H8.001a2.675 2.675 0 0 0-2.667 2.667v13.333c0 1.466 1.2 2.666 2.667 2.666h16c1.466 0 2.666-1.2 2.666-2.666V13.333c0-1.466-1.2-2.666-2.666-2.666zm-8 12A2.674 2.674 0 0 1 13.335 20c0-1.466 1.2-2.666 2.667-2.666 1.466 0 2.666 1.2 2.666 2.666 0 1.467-1.2 2.667-2.666 2.667zm-4-12V8c0-2.213 1.787-4 4-4 2.214 0 4 1.787 4 4v2.667h-8z" fill="#FB0"/></svg>