<svg width="32" height="32" fill="none" xmlns="http://www.w3.org/2000/svg"><path d="M27.281 11.026a1.334 1.334 0 0 0-.093 1.333c.33.772.564 1.583.693 2.413a10.667 10.667 0 0 1-.92 6.307 1.333 1.333 0 0 1-1.186.707H8.908a1.333 1.333 0 0 1-1.187-.72A10.667 10.667 0 0 1 18.668 5.772c.968.114 1.916.366 2.813.747a1.333 1.333 0 0 0 1.334-.093 1.334 1.334 0 0 0-.227-2.347A13.333 13.333 0 0 0 5.8 23.026a2.666 2.666 0 0 0 2.294 1.333H26.56a2.667 2.667 0 0 0 2.32-1.333 13.333 13.333 0 0 0 .734-11.854 1.334 1.334 0 0 0-2.334-.146z" fill="#FB0"/><path d="M15.455 14.48a2.668 2.668 0 1 0 3.774 3.773l7.546-11.32-11.32 7.547z" fill="#FB0"/></svg>