<svg width="134" height="37" fill="none" xmlns="http://www.w3.org/2000/svg"><path fill="#000" d="M0 .346h133.54v36.346H0z"/><path d="M4.949 15.334a7.56 7.56 0 0 1 2.616-2.658c1.13-.682 2.415-1.022 3.853-1.022 1.673 0 3.181.477 4.524 1.43 1.367.955 2.44 2.318 3.217 4.09.801 1.744 1.202 3.775 1.202 6.092 0 2.317-.4 4.375-1.202 6.174-.778 1.772-1.85 3.149-3.217 4.13a7.484 7.484 0 0 1-4.524 1.472c-1.461 0-2.746-.327-3.853-.981a8.116 8.116 0 0 1-2.616-2.617v3.23H0V4.416h4.949v10.918zm10.357 7.932c0-1.363-.247-2.535-.742-3.516-.472-1.009-1.108-1.772-1.91-2.29a4.498 4.498 0 0 0-2.544-.777c-.896 0-1.744.273-2.545.818-.778.518-1.414 1.28-1.91 2.29-.47 1.008-.706 2.194-.706 3.557s.235 2.549.707 3.557c.495 1.009 1.131 1.786 1.909 2.33.8.519 1.65.778 2.545.778.919 0 1.767-.273 2.545-.818.801-.545 1.437-1.322 1.909-2.33.495-1.01.742-2.209.742-3.599zm11.16-13.943c-.872 0-1.602-.314-2.191-.94-.566-.655-.848-1.459-.848-2.413 0-.954.282-1.745.848-2.371.589-.655 1.32-.982 2.191-.982.872 0 1.591.327 2.157.982.589.626.883 1.417.883 2.371s-.294 1.758-.883 2.413c-.566.626-1.285.94-2.157.94zm2.44 2.699v22.652h-4.95V12.022h4.95zM45.39 34.674l-6.646-9.65v9.65h-4.949V4.416h4.95v17.215l6.574-9.61h6.434L43.127 23.39l8.696 11.285H45.39zm6.794-11.326c0-2.345.412-4.389 1.237-6.133.825-1.772 1.968-3.135 3.429-4.09 1.46-.98 3.134-1.471 5.02-1.471 2.427 0 4.43.708 6.009 2.126 1.602 1.39 2.674 3.353 3.216 5.888H65.76c-.283-.982-.766-1.745-1.45-2.29-.66-.572-1.484-.859-2.474-.859-1.414 0-2.533.6-3.358 1.8-.825 1.172-1.237 2.848-1.237 5.029 0 2.153.412 3.83 1.237 5.03.825 1.171 1.944 1.757 3.358 1.757 2.003 0 3.31-1.036 3.924-3.107h5.337c-.542 2.453-1.614 4.402-3.216 5.847-1.603 1.445-3.606 2.167-6.01 2.167-1.885 0-3.558-.477-5.02-1.431-1.449-.968-2.636-2.384-3.428-4.089-.825-1.772-1.238-3.83-1.238-6.174zm26.504-7.81c.607-1.166 1.458-2.136 2.475-2.821 1.037-.682 2.215-1.023 3.535-1.023v6.011H83.39c-1.555 0-2.734.423-3.535 1.268-.778.845-1.167 2.317-1.167 4.416v11.285H73.74V12.022h4.948v3.516zm21.184 15.906c-.542 1.036-1.425 1.908-2.651 2.617a8.015 8.015 0 0 1-3.959 1.022c-1.225 0-2.333-.286-3.323-.859a6.178 6.178 0 0 1-2.333-2.371c-.565-1.009-.848-2.167-.848-3.476 0-2.099.671-3.816 2.015-5.152 1.367-1.336 3.405-2.003 6.115-2.003h4.984c-.047-1.445-.412-2.59-1.096-3.435-.66-.872-1.578-1.308-2.757-1.308-1.037 0-1.897.327-2.58.98-.684.628-1.12 1.514-1.308 2.659h-4.949c.236-1.636.742-3.094 1.52-4.375.794-1.302 1.866-2.345 3.11-3.026 1.297-.736 2.746-1.104 4.349-1.104 1.65 0 3.134.395 4.454 1.186 1.31.755 2.403 1.934 3.146 3.393.754 1.472 1.131 3.203 1.131 5.193v13.289h-5.02v-3.23zm-5.16-.982c.824 0 1.625-.204 2.403-.613.801-.409 1.461-1.022 1.98-1.84.518-.818.777-1.785.777-2.903v-.164h-4.701c-1.131 0-1.98.26-2.545.777-.542.518-.813 1.2-.813 2.045 0 .818.247 1.472.742 1.963.518.49 1.237.735 2.156.735zm20.616-13.738v17.95h-5.019v-17.95h-2.227v-4.702h2.227v-1.145c0-2.78.683-4.825 2.05-6.134 1.367-1.308 3.429-1.921 6.186-1.84v4.825c-1.202-.027-2.038.205-2.51.695-.471.491-.707 1.377-.707 2.658v.94h6.432V6.42h4.984v5.602h4.383v4.702h-4.383v10.958c0 .763.153 1.322.46 1.677.33.327.872.49 1.626.49h2.297v4.825h-3.11c-4.171 0-6.257-2.344-6.257-7.033V16.724h-6.432z" fill="#fff"/></svg>